<svg width="215" height="60" viewBox="0 0 215 60" fill="none" xmlns="http://www.w3.org/2000/svg">
<g clip-path="url(#clip0_222_1453)">
<path d="M210.34 57.7767C210.037 57.7242 209.751 57.6783 209.465 57.6291C208.919 57.534 208.372 57.4389 207.826 57.3504C207.748 57.3373 207.716 57.3078 207.703 57.2291C207.641 56.8847 207.563 56.5404 207.501 56.1928C207.485 56.101 207.488 56.0026 207.501 55.9108C207.53 55.7206 207.576 55.5337 207.615 55.3337C207.839 55.3829 208.051 55.432 208.265 55.4812C208.785 55.5993 209.303 55.7206 209.823 55.8387C209.907 55.8583 209.94 55.8944 209.959 55.9797C210.076 56.5437 210.2 57.1077 210.32 57.6717C210.327 57.7013 210.33 57.7308 210.34 57.78V57.7767Z" fill="white"/>
<path d="M207.615 52.6348C207.722 52.684 207.829 52.7299 207.937 52.7759C208.288 52.9333 208.642 53.0907 208.994 53.2513C209.039 53.271 209.088 53.3169 209.104 53.3596C209.348 54.0646 209.585 54.7729 209.829 55.5009C209.647 55.4615 209.478 55.4222 209.309 55.3828C208.763 55.2582 208.213 55.1336 207.667 55.0025C207.621 54.9926 207.572 54.9598 207.543 54.9238C207.374 54.7139 207.208 54.5007 207.046 54.2843C207.023 54.2515 207.007 54.1925 207.02 54.1597C207.208 53.6612 207.403 53.1661 207.595 52.6709C207.598 52.6611 207.605 52.6512 207.618 52.6348H207.615Z" fill="white"/>
<path d="M211.68 54.5729C211.634 54.3597 211.592 54.1564 211.55 53.9564C211.442 53.4415 211.335 52.9267 211.224 52.4151C211.208 52.3332 211.221 52.2905 211.293 52.2446C211.615 52.0446 211.93 51.8347 212.249 51.6314C212.281 51.6117 212.32 51.5921 212.359 51.5855C212.785 51.5068 213.211 51.4281 213.654 51.3461C213.644 51.392 213.637 51.4248 213.628 51.4576C213.488 51.9298 213.348 52.402 213.205 52.871C213.192 52.9136 213.176 52.9562 213.146 52.9857C212.678 53.4973 212.207 54.0089 211.738 54.5204C211.725 54.5368 211.706 54.5499 211.68 54.5762V54.5729Z" fill="white"/>
<path d="M210.314 56.0321C210.506 56.1272 210.691 56.2158 210.873 56.3076C211.381 56.5601 211.888 56.8093 212.395 57.0618C212.424 57.0749 212.454 57.0946 212.47 57.1208C212.743 57.5406 213.016 57.9636 213.299 58.3965C213.133 58.4588 212.977 58.5178 212.821 58.5768C212.603 58.6588 212.389 58.7441 212.171 58.8195C212.129 58.8359 212.06 58.8293 212.024 58.8031C211.602 58.5145 211.182 58.2194 210.763 57.9242C210.73 57.9013 210.698 57.8619 210.691 57.8226C210.564 57.2487 210.441 56.6716 210.317 56.0977C210.314 56.0813 210.317 56.0616 210.314 56.0321Z" fill="white"/>
<path d="M212.015 51.392C211.686 51.6052 211.371 51.8085 211.052 52.0085C211.026 52.0249 210.981 52.0348 210.951 52.0249C210.346 51.815 209.745 51.6019 209.143 51.3888C209.133 51.3855 209.124 51.3756 209.107 51.3658C209.224 50.9034 209.338 50.4378 209.459 49.9557C209.598 49.9721 209.735 49.9852 209.872 50.0016C210.2 50.041 210.529 50.0771 210.857 50.1164C210.896 50.123 210.948 50.1394 210.971 50.1689C211.319 50.5722 211.66 50.9788 212.011 51.392H212.015Z" fill="white"/>
<path d="M205.524 49.8049C205.748 49.8737 205.963 49.9393 206.181 50.0049C206.506 50.1066 206.834 50.2049 207.159 50.3099C207.202 50.323 207.244 50.3427 207.277 50.3689C207.712 50.7198 208.148 51.0739 208.584 51.4281C208.597 51.4379 208.61 51.4511 208.633 51.4707C208.545 51.5298 208.464 51.5855 208.382 51.638C208.119 51.815 207.855 51.9888 207.592 52.1692C207.54 52.2053 207.501 52.2086 207.446 52.1692C206.938 51.8249 206.431 51.4871 205.924 51.1461C205.891 51.1231 205.859 51.0838 205.846 51.0477C205.735 50.6509 205.628 50.2541 205.52 49.8606C205.517 49.8475 205.52 49.8311 205.52 49.8049H205.524Z" fill="white"/>
<path d="M207.192 56.3043C207.27 56.6945 207.345 57.0684 207.423 57.4422C207.436 57.5012 207.462 57.5635 207.498 57.6127C207.813 58.0587 208.132 58.5014 208.451 58.9474C208.467 58.9703 208.483 58.9966 208.516 59.0392C208.288 58.9802 208.08 58.9277 207.875 58.8752C207.348 58.7375 206.825 58.5998 206.298 58.462C206.255 58.4522 206.207 58.4227 206.187 58.3899C205.992 58.0095 205.8 57.6258 205.602 57.2291C206.129 56.9241 206.652 56.6224 207.195 56.3076L207.192 56.3043Z" fill="white"/>
<path d="M213.54 58.1702C213.351 57.8816 213.176 57.6094 213 57.3373C212.994 57.3242 212.984 57.311 212.977 57.3012C212.902 57.1799 212.779 57.0618 212.763 56.9339C212.746 56.8093 212.837 56.6683 212.883 56.5371C212.981 56.2551 213.078 55.9698 213.179 55.6878C213.189 55.6583 213.215 55.6157 213.241 55.6091C213.761 55.4517 214.281 55.2943 214.818 55.1336C214.815 55.173 214.818 55.1992 214.808 55.2254C214.701 55.6616 214.597 56.0944 214.489 56.5306C214.483 56.5601 214.476 56.5896 214.463 56.6158C214.161 57.1274 213.859 57.6422 213.543 58.1735L213.54 58.1702Z" fill="white"/>
<path d="M206.714 54.0318C206.187 53.799 205.67 53.5694 205.14 53.3333C205.358 52.7103 205.579 52.0938 205.8 51.4609C205.891 51.5199 205.973 51.5724 206.054 51.6249C206.447 51.8872 206.838 52.1528 207.231 52.4119C207.296 52.4545 207.319 52.4906 207.286 52.5693C207.094 53.0513 206.909 53.5334 206.714 54.0285V54.0318Z" fill="white"/>
<path d="M210.841 49.7852C210.522 49.7491 210.22 49.7131 209.917 49.677C209.777 49.6606 209.641 49.6475 209.501 49.6245C209.468 49.6212 209.426 49.6016 209.413 49.5753C209.13 49.0835 208.851 48.5883 208.561 48.0735C209.26 47.9652 209.95 47.8603 210.652 47.7554C210.717 48.4342 210.779 49.0999 210.841 49.7819V49.7852Z" fill="white"/>
<path d="M213.332 53.2645C213.81 53.7826 214.278 54.2876 214.756 54.8057C214.62 54.8483 214.493 54.8844 214.369 54.9205C213.966 55.0418 213.559 55.1631 213.156 55.2812C213.12 55.291 213.072 55.3042 213.039 55.291C212.655 55.15 212.272 55.0025 211.868 54.8516C212.359 54.3171 212.841 53.7957 213.332 53.2612V53.2645Z" fill="white"/>
<path d="M209.436 53.3301H211.088C211.159 53.6711 211.231 54.0187 211.306 54.363C211.332 54.4942 211.364 54.6221 211.387 54.7532C211.394 54.786 211.374 54.8451 211.348 54.8615C210.964 55.0713 210.577 55.2746 210.19 55.4779C210.184 55.4779 210.177 55.4779 210.161 55.4845C209.92 54.7729 209.683 54.0613 209.436 53.3301Z" fill="white"/>
<path d="M211.582 58.9113C211.286 58.9375 211.01 58.9638 210.73 58.99C210.174 59.0392 209.618 59.0884 209.062 59.131C209.026 59.131 208.974 59.1146 208.955 59.0884C208.629 58.6391 208.307 58.1899 207.986 57.7373C207.982 57.7308 207.982 57.7242 207.973 57.7013C208.161 57.7341 208.343 57.7603 208.522 57.7931C209.156 57.9013 209.787 58.0095 210.421 58.121C210.457 58.1276 210.496 58.1341 210.525 58.1538C210.867 58.3899 211.208 58.6293 211.55 58.8687C211.559 58.8752 211.563 58.8851 211.585 58.908L211.582 58.9113Z" fill="white"/>
<path d="M204.857 55.5402C204.932 55.8714 205.016 56.1731 205.062 56.4781C205.15 57.0782 205.41 57.6029 205.686 58.1276C205.725 58.1997 205.758 58.2718 205.797 58.3505C205.062 58.2948 204.373 58.1144 203.712 57.78C203.787 57.6029 203.862 57.416 203.94 57.2323C204.051 56.97 204.161 56.7077 204.272 56.4453C204.304 56.3666 204.33 56.2846 204.379 56.2125C204.529 55.9928 204.685 55.7796 204.857 55.5402Z" fill="white"/>
<path d="M203.202 53.5891H204.766C204.766 53.6088 204.773 53.6252 204.773 53.6449C204.773 54.1072 204.773 54.5729 204.773 55.0353C204.773 55.0648 204.773 55.0976 204.756 55.1205C204.581 55.3697 204.402 55.619 204.216 55.8813C204.09 55.7141 203.976 55.5566 203.859 55.4025C203.654 55.1303 203.452 54.8582 203.251 54.586C203.231 54.5565 203.205 54.5237 203.205 54.4909C203.202 54.1958 203.205 53.9006 203.205 53.5957L203.202 53.5891Z" fill="white"/>
<path d="M207.855 52.3856C208.135 52.1987 208.405 52.038 208.652 51.8446C208.851 51.6872 209.026 51.6773 209.26 51.7691C209.764 51.9725 210.281 52.1364 210.795 52.3135C210.863 52.3364 210.896 52.3725 210.909 52.4414C210.942 52.6185 210.981 52.7955 211.02 52.9923C210.831 52.9923 210.652 52.9923 210.473 52.9923C210.093 52.9923 209.709 52.9989 209.329 53.0021C209.293 53.0021 209.254 53.0021 209.221 52.989C208.776 52.7923 208.33 52.5922 207.859 52.3824L207.855 52.3856Z" fill="white"/>
<path d="M205.543 49.4671C205.797 49.1359 206.041 48.8244 206.275 48.5096C206.34 48.421 206.415 48.3751 206.525 48.362C207.02 48.2997 207.514 48.2276 208.034 48.1554C207.758 48.7719 207.488 49.3753 207.218 49.9852C206.665 49.8147 206.116 49.6442 205.547 49.4704L205.543 49.4671Z" fill="white"/>
<path d="M214.896 54.4778C214.698 54.2614 214.502 54.0515 214.307 53.8416C214.063 53.5793 213.82 53.3169 213.579 53.0513C213.55 53.0185 213.527 52.9595 213.537 52.9202C213.673 52.4381 213.82 51.9561 213.966 51.4609C213.992 51.4773 214.015 51.4871 214.028 51.5035C214.337 51.8216 214.649 52.1364 214.954 52.4545C214.98 52.4807 215 52.5266 215 52.5594C214.974 53.1858 214.941 53.8088 214.912 54.4352C214.912 54.445 214.906 54.4548 214.896 54.4745V54.4778Z" fill="white"/>
<path d="M203.303 53.2448C203.387 53.0612 203.472 52.8841 203.556 52.7037C203.712 52.3692 203.872 52.0348 204.031 51.7003C204.047 51.6675 204.08 51.6281 204.109 51.6249C204.555 51.5527 205 51.4838 205.462 51.4117C205.452 51.4511 205.449 51.4773 205.439 51.5035C205.244 52.061 205.049 52.6217 204.847 53.1759C204.834 53.212 204.786 53.2579 204.753 53.2579C204.282 53.2612 203.813 53.2579 203.342 53.2579C203.332 53.2579 203.322 53.2513 203.299 53.2448H203.303Z" fill="white"/>
<path d="M207.504 50.1328C207.774 49.5294 208.044 48.9293 208.317 48.3194C208.34 48.3555 208.359 48.3751 208.372 48.4014C208.626 48.8441 208.877 49.2868 209.127 49.7327C209.146 49.7688 209.156 49.8246 209.146 49.8639C209.046 50.2869 208.938 50.71 208.831 51.1363C208.828 51.1494 208.821 51.1625 208.808 51.192C208.369 50.8378 207.94 50.4902 207.504 50.1361V50.1328Z" fill="white"/>
<path d="M205.491 56.8978C205.374 56.3764 205.26 55.8551 205.14 55.3173H207.29C207.251 55.5173 207.208 55.7206 207.166 55.9272C207.163 55.9469 207.133 55.9665 207.114 55.9797C206.584 56.2846 206.057 56.5896 205.527 56.8946C205.52 56.8946 205.514 56.8946 205.494 56.9011L205.491 56.8978Z" fill="white"/>
<path d="M210.428 55.7239C210.818 55.514 211.185 55.3205 211.553 55.1271C211.579 55.114 211.618 55.1107 211.644 55.1205C212.047 55.2681 212.447 55.4222 212.867 55.5796C212.733 55.9666 212.607 56.3437 212.47 56.7372C211.79 56.3994 211.12 56.0682 210.428 55.7272V55.7239Z" fill="white"/>
<path d="M213.062 48.5325C213.273 49.3589 213.481 50.1722 213.696 51.0018C213.283 51.0772 212.873 51.1526 212.447 51.2313C212.46 51.0969 212.47 50.9756 212.483 50.851C212.525 50.4312 212.571 50.0115 212.616 49.5917C212.62 49.5557 212.629 49.5163 212.642 49.4835C212.769 49.1851 212.899 48.8867 213.029 48.5883C213.036 48.5719 213.046 48.5588 213.065 48.5325H213.062Z" fill="white"/>
<path d="M211.02 48.0735C211.182 48.2604 211.325 48.4276 211.468 48.5916C211.716 48.8769 211.963 49.1622 212.21 49.4442C212.265 49.5065 212.288 49.5655 212.278 49.6508C212.226 50.1 212.184 50.5493 212.135 51.0248C212.096 50.9854 212.07 50.9592 212.047 50.9297C211.797 50.6345 211.546 50.3361 211.293 50.0443C211.218 49.959 211.169 49.8738 211.159 49.7524C211.12 49.2376 211.065 48.726 211.016 48.2145C211.013 48.1784 211.016 48.139 211.016 48.0735H211.02Z" fill="white"/>
<path d="M207.163 54.9729H205.111V53.6777C205.426 53.8187 205.735 53.9531 206.044 54.0908C206.164 54.1433 206.281 54.2089 206.408 54.2482C206.626 54.3204 206.792 54.4548 206.916 54.6483C206.984 54.7565 207.072 54.8516 207.166 54.9729H207.163Z" fill="white"/>
<path d="M214.883 51.9003C214.701 51.72 214.545 51.5396 214.366 51.392C214.089 51.1658 213.979 50.8674 213.904 50.5296C213.777 49.9656 213.621 49.4114 213.478 48.8506C213.468 48.808 213.459 48.7654 213.442 48.6899C213.511 48.7687 213.559 48.8244 213.605 48.8801C213.868 49.195 214.128 49.5098 214.392 49.8246C214.418 49.8541 214.437 49.8934 214.447 49.9295C214.593 50.5788 214.74 51.2281 214.889 51.9003H214.883Z" fill="white"/>
<path d="M203.212 55.0713C203.485 55.4353 203.745 55.7862 204.002 56.1338C204.015 56.1535 204.025 56.1928 204.015 56.2125C203.846 56.6257 203.67 57.0356 203.491 57.4619C203.475 57.4389 203.469 57.4291 203.462 57.4192C203.309 57.0782 203.153 56.7404 203.004 56.3994C202.987 56.3633 202.984 56.3141 202.994 56.2715C203.056 55.9436 203.124 55.619 203.186 55.291C203.199 55.2254 203.202 55.1599 203.212 55.068V55.0713Z" fill="white"/>
<path d="M205.186 49.8508C205.296 50.264 205.403 50.6575 205.517 51.0739C205.085 51.1428 204.659 51.2084 204.216 51.2773C204.343 50.9723 204.464 50.6804 204.581 50.3919C204.587 50.3788 204.597 50.3656 204.607 50.3558C204.795 50.1918 204.984 50.0246 205.186 49.8508Z" fill="white"/>
<path d="M212.415 49.1851C212.021 48.7293 211.641 48.2932 211.26 47.8537C211.264 47.8472 211.27 47.8374 211.273 47.8308C211.8 47.9325 212.327 48.0341 212.87 48.1423C212.717 48.4932 212.571 48.831 212.418 49.1884L212.415 49.1851Z" fill="white"/>
<path d="M14.5363 5.36153V46.1289C14.5363 57.9636 21.8044 58.1669 21.8044 58.1669V59.1769C18.8711 59.1769 16.4679 58.8391 14.5363 58.2357C6.46815 55.6124 6.06815 48.2833 6.06815 41.6921V27.493H0V26.3059C11.1347 20.0689 14.5363 5.36153 14.5363 5.36153Z" fill="white"/>
<path d="M50.6167 21.7216C50.2167 21.3838 49.6834 21.1149 49.0818 20.9149C48.4802 20.7116 47.7485 20.5771 46.8802 20.5771C46.0119 20.5771 44.8803 20.9805 43.4787 21.7872C42.0771 22.6627 40.8121 24.1417 39.6771 26.3584C38.5422 28.5784 37.9438 31.8052 37.9438 35.9075V52.3168C37.9438 53.7957 38.3438 55.1402 39.2121 56.4191C40.0804 57.698 41.147 58.5702 42.5454 59.1769H25.1409C26.5425 58.5702 27.6741 57.698 28.5424 56.4191C29.3424 55.1402 29.7424 53.7957 29.7424 52.3168V26.2272C29.7424 24.9483 29.2741 23.8728 28.4091 22.9316C27.5408 22.0561 26.4091 21.5871 25.1409 21.5871L37.9438 16.6781V28.8506C37.9438 28.4473 38.2105 27.5061 38.6788 26.0928C39.1471 24.6795 40.0121 23.1349 41.212 21.5216C42.412 19.9082 44.0803 18.4948 46.2136 17.2848C48.2818 16.0748 50.9484 15.4681 54.1483 15.4681C53.9467 16.1404 53.7483 16.747 53.5467 17.2848C53.3451 17.8882 53.1467 18.3604 53.0134 18.8326C52.8118 19.3048 52.6784 19.7737 52.6134 20.1115C52.4801 20.4493 52.3468 20.7837 52.2785 21.0526C52.2102 21.3215 52.1451 21.5248 52.0768 21.7249C52.0085 21.9249 51.9435 22.1282 51.8752 22.2627C51.8102 22.3971 51.8102 22.5316 51.8102 22.6004C51.8102 22.6693 51.7419 22.7349 51.6768 22.7349C51.6118 22.7349 51.4752 22.666 51.4102 22.5316C51.2086 22.3282 50.9419 22.0626 50.6102 21.7249L50.6167 21.7216Z" fill="white"/>
<path d="M103.965 52.0479C103.965 53.3268 104.232 54.4679 104.833 55.6124C104.967 55.8157 105.1 56.0846 105.233 56.3535C106.102 57.6324 107.233 58.5735 108.7 59.1769H95.497V48.4834C94.2287 51.979 92.0954 54.7368 89.2272 56.7536C86.359 58.7703 82.8924 59.7803 78.9575 59.7803C75.0227 59.7803 72.2878 59.108 70.2228 57.7636C68.0895 56.4191 66.5546 54.6713 65.5562 52.5857C64.5546 50.5001 63.888 48.3489 63.6213 45.9944C63.3546 43.6399 63.2213 41.4888 63.2213 39.5376V22.4561C63.153 20.9083 62.753 19.5639 61.953 18.2882C61.0848 17.0093 59.9531 16.0682 58.4865 15.4648H71.6244L71.6927 37.3865C71.6927 40.8821 71.9593 44.1121 72.4276 47.07C72.8959 50.0967 74.0276 52.4479 75.7609 54.2646C77.4941 56.0813 80.1608 57.0225 83.829 57.0225C86.0956 57.0225 88.2972 56.1469 90.3654 54.3335C92.0337 52.9201 93.367 51.1723 94.232 49.1556C95.1002 47.1389 95.5002 45.0533 95.5002 42.8332V22.5939C95.5002 21.0461 95.1002 19.5671 94.232 18.2915C93.3637 17.0126 92.232 16.0715 90.7654 15.4681H103.903L103.972 52.0479H103.965Z" fill="white"/>
<path d="M124.505 19.3671C124.505 30.2607 124.573 52.5856 124.573 52.5856C124.573 53.999 124.973 55.409 125.773 56.5535C126.573 57.6979 127.639 58.6391 128.973 59.1769H112.235C114.97 58.1013 116.703 55.4779 116.703 52.5856V18.3571C116.905 12.7759 118.97 6.11903 124.573 2.62338C127.106 1.01 130.241 0 134.309 0C135.776 0 137.376 0.134448 139.044 0.403345C137.844 6.59124 137.376 9.5491 137.376 9.5491C137.376 9.5491 136.976 1.01 130.908 1.01C126.241 1.01 124.84 8.00459 124.573 13.517V18.3571L124.505 19.3671Z" fill="white"/>
<path d="M153.847 52.4512C153.847 55.409 155.649 58.1013 158.38 59.1769H141.376C144.042 58.1013 145.844 55.4123 145.844 52.4512V9.34579C145.844 6.85686 143.844 4.77455 141.376 4.77455L153.847 0V52.4512Z" fill="white"/>
<path d="M201.257 27.3783H171.834C171.216 29.9295 170.9 32.7234 170.9 35.5468C170.9 65.9616 195.612 56.7437 199.735 49.5458C196.334 55.1632 190.383 59.1736 181.876 59.1736C153.567 59.1736 153.535 14.6975 181.876 14.6975C191.846 14.7139 198.305 20.2394 201.257 27.3783ZM191.453 26.1027C189.752 20.2722 186.558 15.9895 181.876 15.9895C177.193 15.9895 173.85 20.2722 172.162 26.1027H191.453Z" fill="white"/>
<path d="M200.005 25.9616H101.89V27.493H200.005V25.9616Z" fill="white"/>
<path d="M65.3708 25.9616H10.9038V27.493H65.3708V25.9616Z" fill="white"/>
</g>
<defs>
<clipPath id="clip0_222_1453">
<rect width="215" height="60" fill="white"/>
</clipPath>
</defs>
</svg>
